<?xml version="1.0" encoding="utf-8"?>
<!-- Generator: Adobe Illustrator 22.0.1, SVG Export Plug-In . SVG Version: 6.00 Build 0)  -->
<svg version="1.1" id="Layer_1" xmlns="http://www.w3.org/2000/svg" xmlns:xlink="http://www.w3.org/1999/xlink" x="0px" y="0px"
	 viewBox="0 0 74 73.7" style="enable-background:new 0 0 74 73.7;" xml:space="preserve">
<style type="text/css">
	.st0{fill:#FFFFFF;}
</style>
<g>
	<path class="st0" d="M37,21.2c-8.7,0-15.8,7.1-15.8,15.8S28.3,52.8,37,52.8S52.8,45.7,52.8,37S45.7,21.2,37,21.2z M37,49.9
		c-7.1,0-12.9-5.8-12.9-12.9S29.9,24.1,37,24.1S49.9,29.9,49.9,37S44.1,49.9,37,49.9z"/>
	<path class="st0" d="M37,0C16.6,0,0,16.6,0,37c0,11,4.9,21,12.6,27.7l0.1,0.1c0.2,0.2,0.5,0.4,0.7,0.6c0.1,0,0.1,0.1,0.2,0.1
		c0.4,0.3,0.8,0.6,1.2,0.9c0.1,0,0.1,0.1,0.2,0.1c0.4,0.3,0.8,0.6,1.2,0.9c0.1,0.1,0.2,0.1,0.2,0.2c0.4,0.3,0.8,0.5,1.2,0.8
		c0.1,0.1,0.2,0.1,0.3,0.2c0.4,0.2,0.7,0.4,1.1,0.6c0.1,0.1,0.3,0.2,0.4,0.2c0.3,0.2,0.6,0.3,1,0.5c1.1,0.6,2.2,1.1,3.4,1.5
		c0.1,0,0.2,0.1,0.2,0.1c0.4,0.2,0.8,0.3,1.2,0.4c0.1,0,0.2,0.1,0.4,0.1c0.4,0.1,0.8,0.2,1.2,0.4c0.1,0,0.3,0.1,0.4,0.1
		c0.4,0.1,0.8,0.2,1.2,0.3c0.2,0,0.3,0.1,0.5,0.1c0.4,0.1,0.7,0.2,1.1,0.2c0.2,0,0.4,0.1,0.6,0.1c0.3,0.1,0.7,0.1,1,0.2
		c0.3,0,0.5,0.1,0.8,0.1s0.6,0.1,0.9,0.1c0.3,0,0.7,0.1,1,0.1c0.2,0,0.5,0,0.7,0c0.6,0,1.2,0,1.8,0s1.2,0,1.8,0c0.2,0,0.5,0,0.7,0
		c0.3,0,0.7,0,1-0.1c0.3,0,0.6-0.1,0.9-0.1c0.3,0,0.5-0.1,0.8-0.1s0.7-0.1,1-0.2c0.2,0,0.4-0.1,0.6-0.1c0.4-0.1,0.7-0.1,1.1-0.2
		c0.2,0,0.4-0.1,0.5-0.1c0.4-0.1,0.8-0.2,1.2-0.3c0.1,0,0.3-0.1,0.4-0.1c0.4-0.1,0.8-0.2,1.2-0.4c0.1,0,0.2-0.1,0.4-0.1
		c0.4-0.1,0.8-0.3,1.2-0.4c0.1,0,0.2-0.1,0.3-0.1c1.1-0.4,2.2-0.9,3.3-1.5c0.3-0.2,0.7-0.3,1-0.5c0.1-0.1,0.3-0.1,0.4-0.2
		c0.4-0.2,0.8-0.4,1.1-0.7c0.1-0.1,0.2-0.1,0.3-0.2c0.4-0.3,0.8-0.5,1.2-0.8c0.1,0,0.1-0.1,0.2-0.1c0.4-0.3,0.8-0.6,1.2-0.9
		c0.1,0,0.1-0.1,0.2-0.1c0.4-0.3,0.8-0.6,1.2-1l0.1-0.1c0.2-0.2,0.5-0.4,0.7-0.6l0.1-0.1C69.1,58,74,48,74,37C74,16.6,57.4,0,37,0z
		 M58.9,62.8v0.3c-0.5,0.4-1,0.8-1.5,1.2c-0.1,0-0.1,0.1-0.2,0.1c-0.4,0.3-0.7,0.5-1.1,0.8c-0.1,0.1-0.2,0.1-0.3,0.2
		c-0.3,0.2-0.6,0.4-1,0.6c-0.1,0.1-0.3,0.2-0.4,0.3c-0.3,0.2-0.6,0.3-0.9,0.5c-0.2,0.1-0.4,0.2-0.6,0.3c-0.2,0.1-0.5,0.3-0.7,0.4
		s-0.5,0.2-0.7,0.4c-0.2,0.1-0.4,0.2-0.6,0.3c-0.3,0.1-0.6,0.3-0.9,0.4c-0.1,0-0.1,0.1-0.2,0.1c-1.2,0.5-2.5,0.9-3.8,1.3
		c-0.1,0-0.1,0-0.2,0.1c-0.4,0.1-0.7,0.2-1.1,0.3c-0.1,0-0.3,0.1-0.4,0.1c-0.3,0.1-0.7,0.1-1,0.2c-0.2,0-0.4,0.1-0.6,0.1
		c-0.3,0.1-0.6,0.1-0.9,0.1c-0.2,0-0.5,0.1-0.7,0.1c-0.3,0-0.5,0.1-0.8,0.1s-0.6,0.1-0.9,0.1c-0.2,0-0.4,0-0.6,0c-0.5,0-1.1,0-1.6,0
		s-1.1,0-1.6,0c-0.2,0-0.4,0-0.6,0c-0.3,0-0.6,0-0.9-0.1c-0.3,0-0.5-0.1-0.8-0.1c-0.2,0-0.5-0.1-0.7-0.1c-0.3,0-0.6-0.1-0.9-0.1
		c-0.2,0-0.4-0.1-0.6-0.1c-0.3-0.1-0.7-0.1-1-0.2c-0.2,0-0.3-0.1-0.5-0.1c-0.4-0.1-0.7-0.2-1.1-0.3c-0.1,0-0.2,0-0.2-0.1
		c-1.3-0.4-2.6-0.8-3.8-1.3c-0.1,0-0.2-0.1-0.2-0.1c-0.3-0.1-0.6-0.3-0.9-0.4c-0.2-0.1-0.4-0.2-0.6-0.3c-0.2-0.1-0.5-0.2-0.7-0.3
		c-0.2-0.1-0.5-0.2-0.7-0.4c-0.2-0.1-0.4-0.2-0.6-0.3c-0.3-0.2-0.6-0.3-0.9-0.5c-0.2-0.1-0.3-0.2-0.5-0.3c-0.3-0.2-0.6-0.4-1-0.6
		c-0.1-0.1-0.2-0.1-0.3-0.2c-0.4-0.3-0.7-0.5-1.1-0.8c-0.1,0-0.1-0.1-0.2-0.1c-0.5-0.4-1-0.8-1.5-1.2v-0.3c-0.3-3.2-0.4-5.9,0.7-7
		c0.6-0.6,1.6-0.9,3.1-0.9h3.5c4.1,3.3,9.2,5.1,14.5,5.1s10.4-1.8,14.5-5.1h3.5c1.5,0,2.5,0.3,3.1,0.9C59.1,57,59,59.7,58.9,62.8z
		 M61.9,60.2c0-2.6-0.3-4.8-1.8-6.3c-1.2-1.2-2.9-1.8-5.2-1.8h-4c-0.3,0-0.7,0.1-0.9,0.3c-3.6,3.1-8.3,4.8-13,4.8s-9.4-1.7-13-4.8
		c-0.3-0.2-0.6-0.3-0.9-0.3h-4c-2.3,0-4,0.6-5.2,1.8c-1.5,1.5-1.8,3.7-1.8,6.3C6.4,54.1,2.9,46,2.9,37C2.9,18.2,18.2,2.9,37,2.9
		S71.1,18.2,71.1,37C71.1,46,67.6,54.1,61.9,60.2z"/>
</g>
</svg>
